# xmcd
#
# Track frame offsets:
#  150
#  9803
#  19043
#  27488
#  39489
#  49349
#  61682
#  73694
#  86951
#  97099
#  105907
#  117121
#  127177
#  136032
#  148795
#  160251
#  170870
#  181123
#
# Disc length: 2560 seconds
#
# Revision: 0
# Processed by: cddbd v1.5.2PL0 Copyright (c) Steve Scherf et al.
# Submitted via: AltoMP3_Maker 3.0
#
DISCID=f309fe12
DTITLE=Pete Drake - For Pete's Sake!
DYEAR=1900
DGENRE=
TTITLE0=For Pete's Sake
TTITLE1=Pleading
TTITLE2=Oriental Twist
TTITLE3=Satisfied Mind w/ The Willis Brothers
TTITLE4=Loves Ive Known
TTITLE5=Color of The Blues (with Singers)
TTITLE6=After Hours
TTITLE7=Till Tomorrow
TTITLE8=Ya'll Come (with singers)
TTITLE9=Rick-A-Shay
TTITLE10=My Abiline (with singers)
TTITLE11=Galaxie (w/ Little Ray Wiggins)
TTITLE12=Kick Off
TTITLE13=Invitation To The Blues (with Singers)
TTITLE14=Star Gazing
TTITLE15=Southern Sunday
TTITLE16=The Spook
TTITLE17=Tearing Down The Tee Pee
EXTD=
EXTT0=
EXTT1=
EXTT2=
EXTT3=
EXTT4=
EXTT5=
EXTT6=
EXTT7=
EXTT8=
EXTT9=
EXTT10=
EXTT11=
EXTT12=
EXTT13=
EXTT14=
EXTT15=
EXTT16=
EXTT17=
PLAYORDER=
